# xmcd
#
# Track frame offsets:
#	150
#	13625
#	23665
#	36072
#	48405
#	62967
#	77160
#	88512
#	101345
#	113910
#	125462
#	138672
#	151762
#	164647
#	185110
#	201497
#	216200
#	237815
#	251602
#	263432
#
# Disc length: 3745 seconds
#
# Revision: 2
# Processed by: cddbd v1.5.1PL0 Copyright (c) Steve Scherf et al.
# Submitted via: dBpowerAMP V4.0
#
DISCID=130e9f14
DTITLE=Merle Haggard - Ultimate Collection
DYEAR=2000
DGENRE=Country
TTITLE0=The Fugitive 
TTITLE1=Mama Tried
TTITLE2=Okie From Muskogee
TTITLE3=If we Make it Through December
TTITLE4=If We're Not Back in Love by Monday
TTITLE5=Ramblin' Fever
TTITLE6=From Graceland to The Promised Land
TTITLE7=I'm Always on a Mountain When I Fall
TTITLE8=It's Been a Great Afternoon
TTITLE9=Red Bandana
TTITLE10=My Own Kind of Hat
TTITLE11=The Way I Am
TTITLE12=Misery and Gin
TTITLE13=I Think I'll Just Stay Here And Drink
TTITLE14=Leonard
TTITLE15=Yesterday's Wine
TTITLE16=Pancho and Lefty
TTITLE17=That's The Way Love Goes
TTITLE18=Rainbow Stew
TTITLE19=Sing me Back Home
EXTD=Merle Haggard
EXTT0=
EXTT1=
EXTT2=
EXTT3=
EXTT4=
EXTT5=
EXTT6=
EXTT7=
EXTT8=
EXTT9=
EXTT10=
EXTT11=
EXTT12=
EXTT13=
EXTT14=
EXTT15=
EXTT16=
EXTT17=
EXTT18=
EXTT19=
PLAYORDER=
